<?xml version="1.0" encoding="UTF-8"?>
<!DOCTYPE svg PUBLIC "-//W3C//DTD SVG 1.1//EN" "http://www.w3.org/Graphics/SVG/1.1/DTD/svg11.dtd">
<!-- Creator: CorelDRAW X8 -->
<svg xmlns="http://www.w3.org/2000/svg" xml:space="preserve" width="1005px" height="1005px" version="1.1" style="shape-rendering:geometricPrecision; text-rendering:geometricPrecision; image-rendering:optimizeQuality; fill-rule:evenodd; clip-rule:evenodd"
viewBox="0 0 1005 1005"
 xmlns:xlink="http://www.w3.org/1999/xlink"
 xmlns:cc="http://creativecommons.org/ns#"
 xmlns:dc="http://purl.org/dc/elements/1.1/"
 xmlns:inkscape="http://www.inkscape.org/namespaces/inkscape"
 xmlns:rdf="http://www.w3.org/1999/02/22-rdf-syntax-ns#"
 xmlns:sodipodi="http://sodipodi.sourceforge.net/DTD/sodipodi-0.dtd"
 xmlns:svg="http://www.w3.org/2000/svg"
 enable-background="new 0 0 512 512"
 baseProfile="tiny">
 <defs>
  <style type="text/css">
   <![CDATA[
    .fil0 {fill:#307ABD}
   ]]>
  </style>
 </defs>
 <g id="Camada_x0020_1">
  <metadata id="CorelCorpID_0Corel-Layer"/>
  <g id="_2418207503344">
   <path class="fil0" d="M207 846c-159,-180 -142,-454 38,-613 179,-159 454,-142 612,37 55,62 89,135 103,211 -12,-89 -49,-176 -113,-248 -169,-192 -462,-210 -654,-40 -191,169 -209,462 -40,653 135,153 348,195 526,121 -162,58 -351,16 -472,-121z"/>
   <path class="fil0" d="M903 200c-53,-91 -133,-159 -223,-198 0,16 0,31 0,46 92,35 173,101 226,192 43,74 62,154 61,232 6,-91 -14,-186 -64,-272z"/>
   <path class="fil0" d="M691 202c-88,-29 -178,-26 -258,1 9,9 18,19 26,29 80,-30 170,-35 257,-6 69,22 128,63 172,114 -48,-63 -116,-112 -197,-138z"/>
   <path class="fil0" d="M418 870c-29,-77 -18,-272 145,-332 107,-39 -22,-169 -15,-264 84,229 382,276 403,252 -39,50 -217,-12 -226,55 -3,22 56,38 60,146 -41,-43 -245,-299 -367,143z"/>
   <path class="fil0" d="M844 519c-41,15 -96,25 -143,3 -83,-30 -137,-180 -153,-247 -6,95 121,224 15,263 -163,60 -174,255 -145,332 122,-442 326,-186 367,-143 -4,-108 -63,-124 -60,-146 9,-67 187,-5 226,-55 -8,9 -51,8 -107,-7z"/>
   <path class="fil0" d="M548 275c-6,95 121,224 15,263 -163,60 -174,255 -145,332 1,-6 3,-13 5,-19 7,-237 122,-264 210,-281 29,-5 50,-26 68,-48 -83,-31 -137,-180 -153,-247z"/>
   <path class="fil0" d="M841 383l-28 7 0 -27 -7 16 -33 -30c0,0 9,19 7,19 -1,-1 -61,-19 -61,-19l23 19 -44 7 22 13 -36 19 26 5 -19 11 19 -1c1,19 12,37 31,45 1,0 2,0 3,1 1,0 1,0 1,0l28 15c2,1 6,0 7,-2 0,0 4,-7 9,-16l13 1 3 -26c3,-5 5,-8 5,-9 1,-3 1,-7 1,-11l30 -37z"/>
  </g>
 </g>
</svg>
